<svg
    class="logo-light"
    width="118"
    height="37"
    viewBox="0 0 118 37"
    fill="none"
    xmlns="http://www.w3.org/2000/svg"
  >
    <mask
      id="mask0_4001_1517"
      style="mask-type: luminance"
      maskUnits="userSpaceOnUse"
      x="0"
      y="0"
      width="118"
      height="37"
    >
      <path d="M118 0H0V37H118V0Z" fill="white" />
    </mask>
    <g mask="url(#mask0_4001_1517)">
      <path
        d="M117.18 25.3055C116.979 25.3055 116.796 25.4325 116.702 25.698C115.493 29.0747 113.858 31.0835 112.513 31.0835C111.74 31.0835 111.427 30.2407 111.427 28.9189C111.427 25.6114 113.451 18.5981 114.472 15.4003C114.59 15.0136 114.667 14.6672 114.667 14.3729C114.667 13.4435 114.147 12.9875 112.861 12.9875C111.475 12.9875 109.982 13.5186 108.531 16.0064C108.029 13.8129 106.513 12.8548 104.395 12.8548C101.946 12.8548 99.5802 14.3959 97.6332 16.8953C95.6862 19.3947 93.397 20.2144 91.6742 19.8103C92.9132 16.8434 93.3734 14.6268 93.3734 12.9817C93.3734 10.4016 92.0695 8.84306 89.9632 8.84306C86.7595 8.84306 84.9128 11.8331 84.9128 14.9789C84.9128 17.409 86.0397 19.9084 88.5177 21.1206C86.4409 25.7153 83.4083 29.8713 82.2578 29.8713C80.771 29.8713 80.3344 22.7541 80.417 17.663C80.4701 14.7423 80.7179 14.5922 80.7179 13.7091C80.7179 13.2011 80.3816 12.8548 79.0305 12.8548C75.8799 12.8548 74.9064 15.4638 74.7589 18.4596C74.7117 19.5967 74.5288 20.7281 74.2161 21.8248C72.9004 26.4195 70.1864 29.9059 68.4164 29.9059C67.5963 29.9059 67.3721 29.1036 67.3721 28.053C67.3721 24.7456 69.266 20.6126 69.266 17.0858C69.266 14.4941 68.1037 12.8548 65.9148 12.8548C63.3365 12.8548 59.9263 15.8563 56.699 21.4785C57.761 17.1724 58.1976 13.0048 55.0529 13.0048C54.3685 13.0164 53.7018 13.1838 53.1 13.5012C52.687 13.6917 52.4333 14.1073 52.4628 14.5518C52.7637 19.1349 48.6868 30.8757 44.8223 30.8757C44.1202 30.8757 43.778 30.1311 43.778 28.9304C43.778 25.6172 45.7958 18.6212 46.8106 15.4176C46.9404 15.002 47.0112 14.6442 47.0112 14.3325C47.0112 13.4551 46.4566 13.0048 45.1999 13.0048C43.8193 13.0048 42.3207 13.5186 40.8752 16.0064C40.3678 13.8129 38.8515 12.8548 36.7334 12.8548C33.2583 12.8548 29.3761 16.4509 27.671 21.1379C25.3877 27.395 20.7857 33.4385 14.5907 33.4385C8.968 33.4385 6.0003 28.8612 6.0003 21.6286C6.0003 11.1866 13.8355 2.65523 19.647 2.65523C22.4259 2.65523 23.7534 4.3869 23.7534 7.04212C23.7534 10.2573 21.9185 11.7523 21.9185 12.976C21.9185 13.3512 22.2371 13.7206 22.8684 13.7206C25.3936 13.7206 28.3672 10.8172 28.3672 6.85741C28.3672 2.89766 25.0809 0 19.2694 0C9.6642 0 0 9.45492 0 21.5708C0 31.2105 4.8616 37.0231 13.2691 37.0231C19.0039 37.0231 24.013 32.6593 26.7152 27.5682C27.022 31.7877 28.9808 33.9927 31.9662 33.9927C34.6212 33.9927 36.7688 32.4457 38.409 29.727C39.0403 32.5727 40.7159 33.9638 42.893 33.9638C45.3887 33.9638 47.4773 32.4169 49.4656 29.5423C49.4361 31.7992 49.9612 33.9234 51.9613 33.9234C52.9053 33.9234 54.0322 33.7098 54.2328 32.9017C56.3391 24.3819 61.5429 17.4264 63.1359 17.4264C63.6079 17.4264 63.7377 17.8708 63.7377 18.3961C63.7377 20.7108 62.068 25.4555 62.068 28.486C62.068 31.7588 63.4899 33.9234 66.4281 33.9234C69.6849 33.9234 72.9948 30.0214 75.2014 24.3184C75.8917 29.6462 77.3844 33.9465 79.7208 33.9465C82.5882 33.9465 87.6799 28.0415 90.7656 21.7902C91.9751 21.9403 93.7923 21.8998 95.5387 20.6935C94.7953 22.5348 94.3587 24.5493 94.3587 26.5638C94.3587 32.3649 97.1907 33.9927 99.6274 33.9927C102.276 33.9927 104.424 32.4457 106.07 29.727C106.613 32.1802 107.999 33.958 110.548 33.958C114.537 33.958 118 29.9694 118 26.6966C118 25.8307 117.622 25.3055 117.18 25.3055ZM34.397 30.7775C32.7863 30.7775 32.155 29.1902 32.155 26.8236C32.155 22.7137 35.0283 15.8505 38.0668 15.8505C39.3943 15.8505 39.8958 17.3802 39.8958 19.2504C39.8958 23.4237 37.1641 30.7775 34.397 30.7775ZM89.5679 18.5115C88.6062 17.3917 88.2581 15.8679 88.2581 14.5114C88.2581 12.8374 88.8835 11.4232 89.6328 11.4232C90.3821 11.4232 90.6122 12.1448 90.6122 13.1491C90.6122 14.8289 89.9986 17.2821 89.5679 18.5115ZM102.058 30.7775C100.448 30.7775 99.8162 28.9535 99.8162 26.8236C99.8162 22.858 102.689 15.8505 105.752 15.8505C107.079 15.8505 107.551 17.3686 107.551 19.2504C107.551 23.4237 104.867 30.7775 102.058 30.7775Z"
        fill="#7D2AE7"
      />
      <path
        d="M117.18 25.3055C116.979 25.3055 116.796 25.4325 116.702 25.698C115.493 29.0747 113.858 31.0835 112.513 31.0835C111.74 31.0835 111.427 30.2407 111.427 28.9189C111.427 25.6114 113.451 18.5981 114.472 15.4003C114.59 15.0136 114.667 14.6672 114.667 14.3729C114.667 13.4435 114.147 12.9875 112.861 12.9875C111.475 12.9875 109.982 13.5186 108.531 16.0064C108.029 13.8129 106.513 12.8548 104.395 12.8548C101.946 12.8548 99.5802 14.3959 97.6332 16.8953C95.6862 19.3947 93.397 20.2144 91.6742 19.8103C92.9132 16.8434 93.3734 14.6268 93.3734 12.9817C93.3734 10.4016 92.0695 8.84306 89.9632 8.84306C86.7595 8.84306 84.9128 11.8331 84.9128 14.9789C84.9128 17.409 86.0397 19.9084 88.5177 21.1206C86.4409 25.7153 83.4083 29.8713 82.2578 29.8713C80.771 29.8713 80.3344 22.7541 80.417 17.663C80.4701 14.7423 80.7179 14.5922 80.7179 13.7091C80.7179 13.2011 80.3816 12.8548 79.0305 12.8548C75.8799 12.8548 74.9064 15.4638 74.7589 18.4596C74.7117 19.5967 74.5288 20.7281 74.2161 21.8248C72.9004 26.4195 70.1864 29.9059 68.4164 29.9059C67.5963 29.9059 67.3721 29.1036 67.3721 28.053C67.3721 24.7456 69.266 20.6126 69.266 17.0858C69.266 14.4941 68.1037 12.8548 65.9148 12.8548C63.3365 12.8548 59.9263 15.8563 56.699 21.4785C57.761 17.1724 58.1976 13.0048 55.0529 13.0048C54.3685 13.0164 53.7018 13.1838 53.1 13.5012C52.687 13.6917 52.4333 14.1073 52.4628 14.5518C52.7637 19.1349 48.6868 30.8757 44.8223 30.8757C44.1202 30.8757 43.778 30.1311 43.778 28.9304C43.778 25.6172 45.7958 18.6212 46.8106 15.4176C46.9404 15.002 47.0112 14.6442 47.0112 14.3325C47.0112 13.4551 46.4566 13.0048 45.1999 13.0048C43.8193 13.0048 42.3207 13.5186 40.8752 16.0064C40.3678 13.8129 38.8515 12.8548 36.7334 12.8548C33.2583 12.8548 29.3761 16.4509 27.671 21.1379C25.3877 27.395 20.7857 33.4385 14.5907 33.4385C8.968 33.4385 6.0003 28.8612 6.0003 21.6286C6.0003 11.1866 13.8355 2.65523 19.647 2.65523C22.4259 2.65523 23.7534 4.3869 23.7534 7.04212C23.7534 10.2573 21.9185 11.7523 21.9185 12.976C21.9185 13.3512 22.2371 13.7206 22.8684 13.7206C25.3936 13.7206 28.3672 10.8172 28.3672 6.85741C28.3672 2.89766 25.0809 0 19.2694 0C9.6642 0 0 9.45492 0 21.5708C0 31.2105 4.8616 37.0231 13.2691 37.0231C19.0039 37.0231 24.013 32.6593 26.7152 27.5682C27.022 31.7877 28.9808 33.9927 31.9662 33.9927C34.6212 33.9927 36.7688 32.4457 38.409 29.727C39.0403 32.5727 40.7159 33.9638 42.893 33.9638C45.3887 33.9638 47.4773 32.4169 49.4656 29.5423C49.4361 31.7992 49.9612 33.9234 51.9613 33.9234C52.9053 33.9234 54.0322 33.7098 54.2328 32.9017C56.3391 24.3819 61.5429 17.4264 63.1359 17.4264C63.6079 17.4264 63.7377 17.8708 63.7377 18.3961C63.7377 20.7108 62.068 25.4555 62.068 28.486C62.068 31.7588 63.4899 33.9234 66.4281 33.9234C69.6849 33.9234 72.9948 30.0214 75.2014 24.3184C75.8917 29.6462 77.3844 33.9465 79.7208 33.9465C82.5882 33.9465 87.6799 28.0415 90.7656 21.7902C91.9751 21.9403 93.7923 21.8998 95.5387 20.6935C94.7953 22.5348 94.3587 24.5493 94.3587 26.5638C94.3587 32.3649 97.1907 33.9927 99.6274 33.9927C102.276 33.9927 104.424 32.4457 106.07 29.727C106.613 32.1802 107.999 33.958 110.548 33.958C114.537 33.958 118 29.9694 118 26.6966C118 25.8307 117.622 25.3055 117.18 25.3055ZM34.397 30.7775C32.7863 30.7775 32.155 29.1902 32.155 26.8236C32.155 22.7137 35.0283 15.8505 38.0668 15.8505C39.3943 15.8505 39.8958 17.3802 39.8958 19.2504C39.8958 23.4237 37.1641 30.7775 34.397 30.7775ZM89.5679 18.5115C88.6062 17.3917 88.2581 15.8679 88.2581 14.5114C88.2581 12.8374 88.8835 11.4232 89.6328 11.4232C90.3821 11.4232 90.6122 12.1448 90.6122 13.1491C90.6122 14.8289 89.9986 17.2821 89.5679 18.5115ZM102.058 30.7775C100.448 30.7775 99.8162 28.9535 99.8162 26.8236C99.8162 22.858 102.689 15.8505 105.752 15.8505C107.079 15.8505 107.551 17.3686 107.551 19.2504C107.551 23.4237 104.867 30.7775 102.058 30.7775Z"
        fill="url(#paint0_radial_4001_1517)"
      />
      <path
        d="M117.18 25.3055C116.979 25.3055 116.796 25.4325 116.702 25.698C115.493 29.0747 113.858 31.0835 112.513 31.0835C111.74 31.0835 111.427 30.2407 111.427 28.9189C111.427 25.6114 113.451 18.5981 114.472 15.4003C114.59 15.0136 114.667 14.6672 114.667 14.3729C114.667 13.4435 114.147 12.9875 112.861 12.9875C111.475 12.9875 109.982 13.5186 108.531 16.0064C108.029 13.8129 106.513 12.8548 104.395 12.8548C101.946 12.8548 99.5802 14.3959 97.6332 16.8953C95.6862 19.3947 93.397 20.2144 91.6742 19.8103C92.9132 16.8434 93.3734 14.6268 93.3734 12.9817C93.3734 10.4016 92.0695 8.84306 89.9632 8.84306C86.7595 8.84306 84.9128 11.8331 84.9128 14.9789C84.9128 17.409 86.0397 19.9084 88.5177 21.1206C86.4409 25.7153 83.4083 29.8713 82.2578 29.8713C80.771 29.8713 80.3344 22.7541 80.417 17.663C80.4701 14.7423 80.7179 14.5922 80.7179 13.7091C80.7179 13.2011 80.3816 12.8548 79.0305 12.8548C75.8799 12.8548 74.9064 15.4638 74.7589 18.4596C74.7117 19.5967 74.5288 20.7281 74.2161 21.8248C72.9004 26.4195 70.1864 29.9059 68.4164 29.9059C67.5963 29.9059 67.3721 29.1036 67.3721 28.053C67.3721 24.7456 69.266 20.6126 69.266 17.0858C69.266 14.4941 68.1037 12.8548 65.9148 12.8548C63.3365 12.8548 59.9263 15.8563 56.699 21.4785C57.761 17.1724 58.1976 13.0048 55.0529 13.0048C54.3685 13.0164 53.7018 13.1838 53.1 13.5012C52.687 13.6917 52.4333 14.1073 52.4628 14.5518C52.7637 19.1349 48.6868 30.8757 44.8223 30.8757C44.1202 30.8757 43.778 30.1311 43.778 28.9304C43.778 25.6172 45.7958 18.6212 46.8106 15.4176C46.9404 15.002 47.0112 14.6442 47.0112 14.3325C47.0112 13.4551 46.4566 13.0048 45.1999 13.0048C43.8193 13.0048 42.3207 13.5186 40.8752 16.0064C40.3678 13.8129 38.8515 12.8548 36.7334 12.8548C33.2583 12.8548 29.3761 16.4509 27.671 21.1379C25.3877 27.395 20.7857 33.4385 14.5907 33.4385C8.968 33.4385 6.0003 28.8612 6.0003 21.6286C6.0003 11.1866 13.8355 2.65523 19.647 2.65523C22.4259 2.65523 23.7534 4.3869 23.7534 7.04212C23.7534 10.2573 21.9185 11.7523 21.9185 12.976C21.9185 13.3512 22.2371 13.7206 22.8684 13.7206C25.3936 13.7206 28.3672 10.8172 28.3672 6.85741C28.3672 2.89766 25.0809 0 19.2694 0C9.6642 0 0 9.45492 0 21.5708C0 31.2105 4.8616 37.0231 13.2691 37.0231C19.0039 37.0231 24.013 32.6593 26.7152 27.5682C27.022 31.7877 28.9808 33.9927 31.9662 33.9927C34.6212 33.9927 36.7688 32.4457 38.409 29.727C39.0403 32.5727 40.7159 33.9638 42.893 33.9638C45.3887 33.9638 47.4773 32.4169 49.4656 29.5423C49.4361 31.7992 49.9612 33.9234 51.9613 33.9234C52.9053 33.9234 54.0322 33.7098 54.2328 32.9017C56.3391 24.3819 61.5429 17.4264 63.1359 17.4264C63.6079 17.4264 63.7377 17.8708 63.7377 18.3961C63.7377 20.7108 62.068 25.4555 62.068 28.486C62.068 31.7588 63.4899 33.9234 66.4281 33.9234C69.6849 33.9234 72.9948 30.0214 75.2014 24.3184C75.8917 29.6462 77.3844 33.9465 79.7208 33.9465C82.5882 33.9465 87.6799 28.0415 90.7656 21.7902C91.9751 21.9403 93.7923 21.8998 95.5387 20.6935C94.7953 22.5348 94.3587 24.5493 94.3587 26.5638C94.3587 32.3649 97.1907 33.9927 99.6274 33.9927C102.276 33.9927 104.424 32.4457 106.07 29.727C106.613 32.1802 107.999 33.958 110.548 33.958C114.537 33.958 118 29.9694 118 26.6966C118 25.8307 117.622 25.3055 117.18 25.3055ZM34.397 30.7775C32.7863 30.7775 32.155 29.1902 32.155 26.8236C32.155 22.7137 35.0283 15.8505 38.0668 15.8505C39.3943 15.8505 39.8958 17.3802 39.8958 19.2504C39.8958 23.4237 37.1641 30.7775 34.397 30.7775ZM89.5679 18.5115C88.6062 17.3917 88.2581 15.8679 88.2581 14.5114C88.2581 12.8374 88.8835 11.4232 89.6328 11.4232C90.3821 11.4232 90.6122 12.1448 90.6122 13.1491C90.6122 14.8289 89.9986 17.2821 89.5679 18.5115ZM102.058 30.7775C100.448 30.7775 99.8162 28.9535 99.8162 26.8236C99.8162 22.858 102.689 15.8505 105.752 15.8505C107.079 15.8505 107.551 17.3686 107.551 19.2504C107.551 23.4237 104.867 30.7775 102.058 30.7775Z"
        fill="url(#paint1_radial_4001_1517)"
      />
      <path
        d="M117.18 25.3055C116.979 25.3055 116.796 25.4325 116.702 25.698C115.493 29.0747 113.858 31.0835 112.513 31.0835C111.74 31.0835 111.427 30.2407 111.427 28.9189C111.427 25.6114 113.451 18.5981 114.472 15.4003C114.59 15.0136 114.667 14.6672 114.667 14.3729C114.667 13.4435 114.147 12.9875 112.861 12.9875C111.475 12.9875 109.982 13.5186 108.531 16.0064C108.029 13.8129 106.513 12.8548 104.395 12.8548C101.946 12.8548 99.5802 14.3959 97.6332 16.8953C95.6862 19.3947 93.397 20.2144 91.6742 19.8103C92.9132 16.8434 93.3734 14.6268 93.3734 12.9817C93.3734 10.4016 92.0695 8.84306 89.9632 8.84306C86.7595 8.84306 84.9128 11.8331 84.9128 14.9789C84.9128 17.409 86.0397 19.9084 88.5177 21.1206C86.4409 25.7153 83.4083 29.8713 82.2578 29.8713C80.771 29.8713 80.3344 22.7541 80.417 17.663C80.4701 14.7423 80.7179 14.5922 80.7179 13.7091C80.7179 13.2011 80.3816 12.8548 79.0305 12.8548C75.8799 12.8548 74.9064 15.4638 74.7589 18.4596C74.7117 19.5967 74.5288 20.7281 74.2161 21.8248C72.9004 26.4195 70.1864 29.9059 68.4164 29.9059C67.5963 29.9059 67.3721 29.1036 67.3721 28.053C67.3721 24.7456 69.266 20.6126 69.266 17.0858C69.266 14.4941 68.1037 12.8548 65.9148 12.8548C63.3365 12.8548 59.9263 15.8563 56.699 21.4785C57.761 17.1724 58.1976 13.0048 55.0529 13.0048C54.3685 13.0164 53.7018 13.1838 53.1 13.5012C52.687 13.6917 52.4333 14.1073 52.4628 14.5518C52.7637 19.1349 48.6868 30.8757 44.8223 30.8757C44.1202 30.8757 43.778 30.1311 43.778 28.9304C43.778 25.6172 45.7958 18.6212 46.8106 15.4176C46.9404 15.002 47.0112 14.6442 47.0112 14.3325C47.0112 13.4551 46.4566 13.0048 45.1999 13.0048C43.8193 13.0048 42.3207 13.5186 40.8752 16.0064C40.3678 13.8129 38.8515 12.8548 36.7334 12.8548C33.2583 12.8548 29.3761 16.4509 27.671 21.1379C25.3877 27.395 20.7857 33.4385 14.5907 33.4385C8.968 33.4385 6.0003 28.8612 6.0003 21.6286C6.0003 11.1866 13.8355 2.65523 19.647 2.65523C22.4259 2.65523 23.7534 4.3869 23.7534 7.04212C23.7534 10.2573 21.9185 11.7523 21.9185 12.976C21.9185 13.3512 22.2371 13.7206 22.8684 13.7206C25.3936 13.7206 28.3672 10.8172 28.3672 6.85741C28.3672 2.89766 25.0809 0 19.2694 0C9.6642 0 0 9.45492 0 21.5708C0 31.2105 4.8616 37.0231 13.2691 37.0231C19.0039 37.0231 24.013 32.6593 26.7152 27.5682C27.022 31.7877 28.9808 33.9927 31.9662 33.9927C34.6212 33.9927 36.7688 32.4457 38.409 29.727C39.0403 32.5727 40.7159 33.9638 42.893 33.9638C45.3887 33.9638 47.4773 32.4169 49.4656 29.5423C49.4361 31.7992 49.9612 33.9234 51.9613 33.9234C52.9053 33.9234 54.0322 33.7098 54.2328 32.9017C56.3391 24.3819 61.5429 17.4264 63.1359 17.4264C63.6079 17.4264 63.7377 17.8708 63.7377 18.3961C63.7377 20.7108 62.068 25.4555 62.068 28.486C62.068 31.7588 63.4899 33.9234 66.4281 33.9234C69.6849 33.9234 72.9948 30.0214 75.2014 24.3184C75.8917 29.6462 77.3844 33.9465 79.7208 33.9465C82.5882 33.9465 87.6799 28.0415 90.7656 21.7902C91.9751 21.9403 93.7923 21.8998 95.5387 20.6935C94.7953 22.5348 94.3587 24.5493 94.3587 26.5638C94.3587 32.3649 97.1907 33.9927 99.6274 33.9927C102.276 33.9927 104.424 32.4457 106.07 29.727C106.613 32.1802 107.999 33.958 110.548 33.958C114.537 33.958 118 29.9694 118 26.6966C118 25.8307 117.622 25.3055 117.18 25.3055ZM34.397 30.7775C32.7863 30.7775 32.155 29.1902 32.155 26.8236C32.155 22.7137 35.0283 15.8505 38.0668 15.8505C39.3943 15.8505 39.8958 17.3802 39.8958 19.2504C39.8958 23.4237 37.1641 30.7775 34.397 30.7775ZM89.5679 18.5115C88.6062 17.3917 88.2581 15.8679 88.2581 14.5114C88.2581 12.8374 88.8835 11.4232 89.6328 11.4232C90.3821 11.4232 90.6122 12.1448 90.6122 13.1491C90.6122 14.8289 89.9986 17.2821 89.5679 18.5115ZM102.058 30.7775C100.448 30.7775 99.8162 28.9535 99.8162 26.8236C99.8162 22.858 102.689 15.8505 105.752 15.8505C107.079 15.8505 107.551 17.3686 107.551 19.2504C107.551 23.4237 104.867 30.7775 102.058 30.7775Z"
        fill="url(#paint2_radial_4001_1517)"
      />
      <path
        d="M117.18 25.3055C116.979 25.3055 116.796 25.4325 116.702 25.698C115.493 29.0747 113.858 31.0835 112.513 31.0835C111.74 31.0835 111.427 30.2407 111.427 28.9189C111.427 25.6114 113.451 18.5981 114.472 15.4003C114.59 15.0136 114.667 14.6672 114.667 14.3729C114.667 13.4435 114.147 12.9875 112.861 12.9875C111.475 12.9875 109.982 13.5186 108.531 16.0064C108.029 13.8129 106.513 12.8548 104.395 12.8548C101.946 12.8548 99.5802 14.3959 97.6332 16.8953C95.6862 19.3947 93.397 20.2144 91.6742 19.8103C92.9132 16.8434 93.3734 14.6268 93.3734 12.9817C93.3734 10.4016 92.0695 8.84306 89.9632 8.84306C86.7595 8.84306 84.9128 11.8331 84.9128 14.9789C84.9128 17.409 86.0397 19.9084 88.5177 21.1206C86.4409 25.7153 83.4083 29.8713 82.2578 29.8713C80.771 29.8713 80.3344 22.7541 80.417 17.663C80.4701 14.7423 80.7179 14.5922 80.7179 13.7091C80.7179 13.2011 80.3816 12.8548 79.0305 12.8548C75.8799 12.8548 74.9064 15.4638 74.7589 18.4596C74.7117 19.5967 74.5288 20.7281 74.2161 21.8248C72.9004 26.4195 70.1864 29.9059 68.4164 29.9059C67.5963 29.9059 67.3721 29.1036 67.3721 28.053C67.3721 24.7456 69.266 20.6126 69.266 17.0858C69.266 14.4941 68.1037 12.8548 65.9148 12.8548C63.3365 12.8548 59.9263 15.8563 56.699 21.4785C57.761 17.1724 58.1976 13.0048 55.0529 13.0048C54.3685 13.0164 53.7018 13.1838 53.1 13.5012C52.687 13.6917 52.4333 14.1073 52.4628 14.5518C52.7637 19.1349 48.6868 30.8757 44.8223 30.8757C44.1202 30.8757 43.778 30.1311 43.778 28.9304C43.778 25.6172 45.7958 18.6212 46.8106 15.4176C46.9404 15.002 47.0112 14.6442 47.0112 14.3325C47.0112 13.4551 46.4566 13.0048 45.1999 13.0048C43.8193 13.0048 42.3207 13.5186 40.8752 16.0064C40.3678 13.8129 38.8515 12.8548 36.7334 12.8548C33.2583 12.8548 29.3761 16.4509 27.671 21.1379C25.3877 27.395 20.7857 33.4385 14.5907 33.4385C8.968 33.4385 6.0003 28.8612 6.0003 21.6286C6.0003 11.1866 13.8355 2.65523 19.647 2.65523C22.4259 2.65523 23.7534 4.3869 23.7534 7.04212C23.7534 10.2573 21.9185 11.7523 21.9185 12.976C21.9185 13.3512 22.2371 13.7206 22.8684 13.7206C25.3936 13.7206 28.3672 10.8172 28.3672 6.85741C28.3672 2.89766 25.0809 0 19.2694 0C9.6642 0 0 9.45492 0 21.5708C0 31.2105 4.8616 37.0231 13.2691 37.0231C19.0039 37.0231 24.013 32.6593 26.7152 27.5682C27.022 31.7877 28.9808 33.9927 31.9662 33.9927C34.6212 33.9927 36.7688 32.4457 38.409 29.727C39.0403 32.5727 40.7159 33.9638 42.893 33.9638C45.3887 33.9638 47.4773 32.4169 49.4656 29.5423C49.4361 31.7992 49.9612 33.9234 51.9613 33.9234C52.9053 33.9234 54.0322 33.7098 54.2328 32.9017C56.3391 24.3819 61.5429 17.4264 63.1359 17.4264C63.6079 17.4264 63.7377 17.8708 63.7377 18.3961C63.7377 20.7108 62.068 25.4555 62.068 28.486C62.068 31.7588 63.4899 33.9234 66.4281 33.9234C69.6849 33.9234 72.9948 30.0214 75.2014 24.3184C75.8917 29.6462 77.3844 33.9465 79.7208 33.9465C82.5882 33.9465 87.6799 28.0415 90.7656 21.7902C91.9751 21.9403 93.7923 21.8998 95.5387 20.6935C94.7953 22.5348 94.3587 24.5493 94.3587 26.5638C94.3587 32.3649 97.1907 33.9927 99.6274 33.9927C102.276 33.9927 104.424 32.4457 106.07 29.727C106.613 32.1802 107.999 33.958 110.548 33.958C114.537 33.958 118 29.9694 118 26.6966C118 25.8307 117.622 25.3055 117.18 25.3055ZM34.397 30.7775C32.7863 30.7775 32.155 29.1902 32.155 26.8236C32.155 22.7137 35.0283 15.8505 38.0668 15.8505C39.3943 15.8505 39.8958 17.3802 39.8958 19.2504C39.8958 23.4237 37.1641 30.7775 34.397 30.7775ZM89.5679 18.5115C88.6062 17.3917 88.2581 15.8679 88.2581 14.5114C88.2581 12.8374 88.8835 11.4232 89.6328 11.4232C90.3821 11.4232 90.6122 12.1448 90.6122 13.1491C90.6122 14.8289 89.9986 17.2821 89.5679 18.5115ZM102.058 30.7775C100.448 30.7775 99.8162 28.9535 99.8162 26.8236C99.8162 22.858 102.689 15.8505 105.752 15.8505C107.079 15.8505 107.551 17.3686 107.551 19.2504C107.551 23.4237 104.867 30.7775 102.058 30.7775Z"
        fill="url(#paint3_radial_4001_1517)"
      />
      <path
        d="M117.18 25.3055C116.979 25.3055 116.796 25.4325 116.702 25.698C115.493 29.0747 113.858 31.0835 112.513 31.0835C111.74 31.0835 111.427 30.2407 111.427 28.9189C111.427 25.6114 113.451 18.5981 114.472 15.4003C114.59 15.0136 114.667 14.6672 114.667 14.3729C114.667 13.4435 114.147 12.9875 112.861 12.9875C111.475 12.9875 109.982 13.5186 108.531 16.0064C108.029 13.8129 106.513 12.8548 104.395 12.8548C101.946 12.8548 99.5802 14.3959 97.6332 16.8953C95.6862 19.3947 93.397 20.2144 91.6742 19.8103C92.9132 16.8434 93.3734 14.6268 93.3734 12.9817C93.3734 10.4016 92.0695 8.84306 89.9632 8.84306C86.7595 8.84306 84.9128 11.8331 84.9128 14.9789C84.9128 17.409 86.0397 19.9084 88.5177 21.1206C86.4409 25.7153 83.4083 29.8713 82.2578 29.8713C80.771 29.8713 80.3344 22.7541 80.417 17.663C80.4701 14.7423 80.7179 14.5922 80.7179 13.7091C80.7179 13.2011 80.3816 12.8548 79.0305 12.8548C75.8799 12.8548 74.9064 15.4638 74.7589 18.4596C74.7117 19.5967 74.5288 20.7281 74.2161 21.8248C72.9004 26.4195 70.1864 29.9059 68.4164 29.9059C67.5963 29.9059 67.3721 29.1036 67.3721 28.053C67.3721 24.7456 69.266 20.6126 69.266 17.0858C69.266 14.4941 68.1037 12.8548 65.9148 12.8548C63.3365 12.8548 59.9263 15.8563 56.699 21.4785C57.761 17.1724 58.1976 13.0048 55.0529 13.0048C54.3685 13.0164 53.7018 13.1838 53.1 13.5012C52.687 13.6917 52.4333 14.1073 52.4628 14.5518C52.7637 19.1349 48.6868 30.8757 44.8223 30.8757C44.1202 30.8757 43.778 30.1311 43.778 28.9304C43.778 25.6172 45.7958 18.6212 46.8106 15.4176C46.9404 15.002 47.0112 14.6442 47.0112 14.3325C47.0112 13.4551 46.4566 13.0048 45.1999 13.0048C43.8193 13.0048 42.3207 13.5186 40.8752 16.0064C40.3678 13.8129 38.8515 12.8548 36.7334 12.8548C33.2583 12.8548 29.3761 16.4509 27.671 21.1379C25.3877 27.395 20.7857 33.4385 14.5907 33.4385C8.968 33.4385 6.0003 28.8612 6.0003 21.6286C6.0003 11.1866 13.8355 2.65523 19.647 2.65523C22.4259 2.65523 23.7534 4.3869 23.7534 7.04212C23.7534 10.2573 21.9185 11.7523 21.9185 12.976C21.9185 13.3512 22.2371 13.7206 22.8684 13.7206C25.3936 13.7206 28.3672 10.8172 28.3672 6.85741C28.3672 2.89766 25.0809 0 19.2694 0C9.6642 0 0 9.45492 0 21.5708C0 31.2105 4.8616 37.0231 13.2691 37.0231C19.0039 37.0231 24.013 32.6593 26.7152 27.5682C27.022 31.7877 28.9808 33.9927 31.9662 33.9927C34.6212 33.9927 36.7688 32.4457 38.409 29.727C39.0403 32.5727 40.7159 33.9638 42.893 33.9638C45.3887 33.9638 47.4773 32.4169 49.4656 29.5423C49.4361 31.7992 49.9612 33.9234 51.9613 33.9234C52.9053 33.9234 54.0322 33.7098 54.2328 32.9017C56.3391 24.3819 61.5429 17.4264 63.1359 17.4264C63.6079 17.4264 63.7377 17.8708 63.7377 18.3961C63.7377 20.7108 62.068 25.4555 62.068 28.486C62.068 31.7588 63.4899 33.9234 66.4281 33.9234C69.6849 33.9234 72.9948 30.0214 75.2014 24.3184C75.8917 29.6462 77.3844 33.9465 79.7208 33.9465C82.5882 33.9465 87.6799 28.0415 90.7656 21.7902C91.9751 21.9403 93.7923 21.8998 95.5387 20.6935C94.7953 22.5348 94.3587 24.5493 94.3587 26.5638C94.3587 32.3649 97.1907 33.9927 99.6274 33.9927C102.276 33.9927 104.424 32.4457 106.07 29.727C106.613 32.1802 107.999 33.958 110.548 33.958C114.537 33.958 118 29.9694 118 26.6966C118 25.8307 117.622 25.3055 117.18 25.3055ZM34.397 30.7775C32.7863 30.7775 32.155 29.1902 32.155 26.8236C32.155 22.7137 35.0283 15.8505 38.0668 15.8505C39.3943 15.8505 39.8958 17.3802 39.8958 19.2504C39.8958 23.4237 37.1641 30.7775 34.397 30.7775ZM89.5679 18.5115C88.6062 17.3917 88.2581 15.8679 88.2581 14.5114C88.2581 12.8374 88.8835 11.4232 89.6328 11.4232C90.3821 11.4232 90.6122 12.1448 90.6122 13.1491C90.6122 14.8289 89.9986 17.2821 89.5679 18.5115ZM102.058 30.7775C100.448 30.7775 99.8162 28.9535 99.8162 26.8236C99.8162 22.858 102.689 15.8505 105.752 15.8505C107.079 15.8505 107.551 17.3686 107.551 19.2504C107.551 23.4237 104.867 30.7775 102.058 30.7775Z"
        fill="url(#paint4_radial_4001_1517)"
      />
    </g>
    <defs>
      <radialGradient
        id="paint0_radial_4001_1517"
        cx="0"
        cy="0"
        r="1"
        gradientTransform="matrix(24.78 -24.936 16.9389 16.1118 60.416 41.0406)"
        gradientUnits="userSpaceOnUse"
      >
        <stop stop-color="#6420FF" />
        <stop offset="1" stop-color="#6420FF" stop-opacity="0" />
      </radialGradient>
      <radialGradient
        id="paint1_radial_4001_1517"
        cx="0"
        cy="0"
        r="1"
        gradientTransform="matrix(68.9119 6.00312 -4.89052 53.7349 2.83199 24.6474)"
        gradientUnits="userSpaceOnUse"
      >
        <stop offset="0.25" stop-color="#00C4CC" />
        <stop offset="1" stop-color="#00C4CC" stop-opacity="0" />
      </radialGradient>
      <radialGradient
        id="paint2_radial_4001_1517"
        cx="0"
        cy="0"
        r="1"
        gradientTransform="matrix(34.7215 -27.3604 19.1223 23.2274 50.3565 37)"
        gradientUnits="userSpaceOnUse"
      >
        <stop stop-color="#6420FF" />
        <stop offset="1" stop-color="#6420FF" stop-opacity="0" />
      </radialGradient>
      <radialGradient
        id="paint3_radial_4001_1517"
        cx="0"
        cy="0"
        r="1"
        gradientTransform="matrix(46.197 -22.1653 15.4915 30.904 3.36299 37)"
        gradientUnits="userSpaceOnUse"
      >
        <stop stop-color="#6420FF" />
        <stop offset="1" stop-color="#6420FF" stop-opacity="0" />
      </radialGradient>
      <radialGradient
        id="paint4_radial_4001_1517"
        cx="0"
        cy="0"
        r="1"
        gradientTransform="matrix(100.3 21.7035 -27.2078 120.35 11.328 3.40562)"
        gradientUnits="userSpaceOnUse"
      >
        <stop stop-color="#00C4CC" />
        <stop offset="1" stop-color="#00C4CC" stop-opacity="0" />
      </radialGradient>
    </defs>
  </svg>