<svg fill="none" height="196" viewBox="0 0 196 196" width="196" xmlns="http://www.w3.org/2000/svg"><path d="m0 39.2c0-21.6496 17.5504-39.2 39.2-39.2h117.6c21.65 0 39.2 17.5504 39.2 39.2v117.6c0 21.65-17.55 39.2-39.2 39.2h-117.6c-21.6496 0-39.2-17.55-39.2-39.2z" fill="#1868db"/><path d="m167.317 90.291h-40.538l35.108-20.2699-7.71-13.3579-35.108 20.2697 20.265-35.1056-13.358-7.7146-20.265 35.1056v-40.5357h-15.4213v40.5395l-20.2731-35.1094-13.3538 7.7107 20.2692 35.1056-35.1084-20.2658-7.7105 13.3541 35.1084 20.2698h-40.5384v15.4219h40.5345l-35.1045 20.269 7.7105 13.358 35.1045-20.266-20.2691 35.106 13.3576 7.711 20.2692-35.11v40.54h15.4212v-40.536l20.265 35.106 13.358-7.711-20.269-35.109 35.108 20.269 7.711-13.358-35.105-20.266h40.534v-15.421zm-69.3168 28.682c-11.6278 0-21.0527-9.424-21.0527-21.0528 0-11.6281 9.4249-21.0532 21.0527-21.0532s21.0528 9.4251 21.0528 21.0532c0 11.6288-9.425 21.0528-21.0528 21.0528z" fill="#fff"/></svg>